<svg viewBox="0 0 1800 1200" xmlns="http://www.w3.org/2000/svg">
  <!-- Title -->
  <text x="900" y="40" font-size="32" font-weight="bold" text-anchor="middle" fill="#1e293b">
    UI Integration Options: Grafana + AI Chat
  </text>
  <text x="900" y="75" font-size="15" text-anchor="middle" fill="#64748b">
    Three Ways to Combine Visual Dashboards and Conversational AI
  </text>
  
  <!-- Option 1: Separate Tabs -->
  <g transform="translate(50, 120)">
    <rect x="0" y="0" width="520" height="450" rx="12" fill="#f0fdf4" stroke="#16a34a" stroke-width="3"/>
    <rect x="0" y="0" width="520" height="50" rx="12" fill="#16a34a"/>
    <text x="260" y="33" font-size="18" font-weight="bold" text-anchor="middle" fill="#ffffff">
      OPTION 1: SEPARATE TABS
    </text>
    
    <!-- Mock UI -->
    <g transform="translate(20, 70)">
      <!-- Navigation -->
      <rect x="0" y="0" width="480" height="40" rx="6" fill="#dcfce7" stroke="#22c55e" stroke-width="2"/>
      <g transform="translate(20, 12)">
        <rect x="0" y="0" width="90" height="22" rx="4" fill="#ffffff" stroke="#16a34a" stroke-width="2"/>
        <text x="45" y="16" font-size="11" font-weight="600" text-anchor="middle" fill="#15803d">Overview</text>
        
        <rect x="100" y="0" width="110" height="22" rx="4" fill="#16a34a" stroke="#16a34a" stroke-width="2"/>
        <text x="155" y="16" font-size="11" font-weight="bold" text-anchor="middle" fill="#ffffff">📊 Dashboards</text>
        
        <rect x="220" y="0" width="100" height="22" rx="4" fill="#ffffff" stroke="#16a34a" stroke-width="2"/>
        <text x="270" y="16" font-size="11" font-weight="600" text-anchor="middle" fill="#15803d">💬 AI Chat</text>
        
        <rect x="330" y="0" width="80" height="22" rx="4" fill="#ffffff" stroke="#16a34a" stroke-width="2"/>
        <text x="370" y="16" font-size="11" font-weight="600" text-anchor="middle" fill="#15803d">Settings</text>
      </g>
      
      <!-- Content Area (Grafana) -->
      <rect x="0" y="50" width="480" height="260" rx="6" fill="#ffffff" stroke="#94a3b8" stroke-width="2"/>
      <text x="240" y="75" font-size="12" font-weight="600" text-anchor="middle" fill="#475569">Grafana Dashboard (Full Screen)</text>
      
      <rect x="20" y="90" width="440" height="200" rx="4" fill="#f8fafc" stroke="#cbd5e1" stroke-width="1"/>
      <text x="240" y="115" font-size="10" text-anchor="middle" fill="#64748b">[Cost Overview Dashboard]</text>
      <text x="240" y="135" font-size="10" text-anchor="middle" fill="#64748b">[Charts, Graphs, Tables]</text>
      <text x="240" y="155" font-size="10" text-anchor="middle" fill="#64748b">[Full width available]</text>
      <text x="240" y="175" font-size="10" text-anchor="middle" fill="#64748b">[Complex visualizations]</text>
    </g>
    
    <!-- Pros/Cons -->
    <g transform="translate(20, 330)">
      <text x="0" y="0" font-size="12" font-weight="600" fill="#15803d">✅ Pros:</text>
      <text x="0" y="18" font-size="10" fill="#166534">• Easiest to implement</text>
      <text x="0" y="33" font-size="10" fill="#166534">• Full screen for each</text>
      <text x="0" y="48" font-size="10" fill="#166534">• Clean separation</text>
      
      <text x="250" y="0" font-size="12" font-weight="600" fill="#dc2626">❌ Cons:</text>
      <text x="250" y="18" font-size="10" fill="#991b1b">• Context switching</text>
      <text x="250" y="33" font-size="10" fill="#991b1b">• Less integrated feel</text>
    </g>
    
    <!-- Recommendation -->
    <rect x="100" y="395" width="320" height="40" rx="6" fill="#fef3c7" stroke="#f59e0b" stroke-width="2"/>
    <text x="260" y="415" font-size="11" font-weight="bold" text-anchor="middle" fill="#92400e">👍 START HERE</text>
    <text x="260" y="429" font-size="9" text-anchor="middle" fill="#78350f">Timeline: 1 week | Best for: MVP</text>
  </g>
  
  <!-- Option 2: Split View -->
  <g transform="translate(630, 120)">
    <rect x="0" y="0" width="520" height="450" rx="12" fill="#f0f9ff" stroke="#0284c7" stroke-width="3"/>
    <rect x="0" y="0" width="520" height="50" rx="12" fill="#0284c7"/>
    <text x="260" y="33" font-size="18" font-weight="bold" text-anchor="middle" fill="#ffffff">
      OPTION 2: SPLIT VIEW
    </text>
    
    <!-- Mock UI -->
    <g transform="translate(20, 70)">
      <!-- Header -->
      <rect x="0" y="0" width="480" height="40" rx="6" fill="#e0f2fe" stroke="#0ea5e9" stroke-width="2"/>
      <text x="20" y="25" font-size="12" font-weight="600" fill="#0c4a6e">Dashboard View</text>
      <rect x="380" y="10" width="90" height="20" rx="4" fill="#0284c7" stroke="#0284c7" stroke-width="1"/>
      <text x="425" y="24" font-size="9" font-weight="600" text-anchor="middle" fill="#ffffff">Toggle Layout</text>
      
      <!-- Split Content -->
      <g transform="translate(0, 50)">
        <!-- Left: Grafana (70%) -->
        <rect x="0" y="0" width="320" height="260" rx="6" fill="#ffffff" stroke="#94a3b8" stroke-width="2"/>
        <text x="160" y="20" font-size="11" font-weight="600" text-anchor="middle" fill="#475569">Grafana (70%)</text>
        
        <rect x="15" y="35" width="290" height="210" rx="4" fill="#f8fafc" stroke="#cbd5e1" stroke-width="1"/>
        <text x="160" y="55" font-size="9" text-anchor="middle" fill="#64748b">[Cost Dashboard]</text>
        <text x="160" y="75" font-size="9" text-anchor="middle" fill="#64748b">[Charts & Graphs]</text>
        <rect x="30" y="90" width="125" height="60" rx="3" fill="#dbeafe" stroke="#60a5fa" stroke-width="1"/>
        <text x="92" y="110" font-size="8" text-anchor="middle" fill="#1e40af">Chart 1</text>
        <rect x="165" y="90" width="125" height="60" rx="3" fill="#dcfce7" stroke="#4ade80" stroke-width="1"/>
        <text x="227" y="110" font-size="8" text-anchor="middle" fill="#15803d">Chart 2</text>
        <rect x="30" y="160" width="260" height="70" rx="3" fill="#fef3c7" stroke="#fbbf24" stroke-width="1"/>
        <text x="160" y="185" font-size="8" text-anchor="middle" fill="#92400e">Table</text>
        
        <!-- Right: Chat (30%) -->
        <rect x="335" y="0" width="145" height="260" rx="6" fill="#ffffff" stroke="#94a3b8" stroke-width="2"/>
        <text x="407" y="20" font-size="11" font-weight="600" text-anchor="middle" fill="#475569">AI Chat (30%)</text>
        
        <rect x="345" y="35" width="125" height="210" rx="4" fill="#f0f9ff" stroke="#0ea5e9" stroke-width="1"/>
        
        <!-- Chat messages -->
        <rect x="355" y="45" width="105" height="30" rx="3" fill="#e0f2fe" stroke="#0ea5e9" stroke-width="1"/>
        <text x="360" y="58" font-size="7" fill="#0c4a6e">You: Why spike?</text>
        
        <rect x="355" y="80" width="105" height="45" rx="3" fill="#ffffff" stroke="#cbd5e1" stroke-width="1"/>
        <text x="360" y="93" font-size="6" fill="#475569">AI: GPT-4 usage</text>
        <text x="360" y="103" font-size="6" fill="#475569">increased 300%</text>
        <text x="360" y="113" font-size="6" fill="#475569">due to batch job</text>
        <text x="407" y="120" font-size="6" text-anchor="middle" fill="#0284c7">[See panel →]</text>
        
        <rect x="355" y="215" width="105" height="20" rx="3" fill="#f8fafc" stroke="#cbd5e1" stroke-width="1"/>
        <text x="360" y="228" font-size="6" fill="#94a3b8">Type question...</text>
      </g>
    </g>
    
    <!-- Pros/Cons -->
    <g transform="translate(20, 330)">
      <text x="0" y="0" font-size="12" font-weight="600" fill="#0c4a6e">✅ Pros:</text>
      <text x="0" y="18" font-size="10" fill="#075985">• Both visible at once</text>
      <text x="0" y="33" font-size="10" fill="#075985">• Less switching</text>
      <text x="0" y="48" font-size="10" fill="#075985">• Chat can link to panels</text>
      
      <text x="250" y="0" font-size="12" font-weight="600" fill="#dc2626">❌ Cons:</text>
      <text x="250" y="18" font-size="10" fill="#991b1b">• Less space for each</text>
      <text x="250" y="33" font-size="10" fill="#991b1b">• Poor on mobile</text>
    </g>
    
    <!-- Recommendation -->
    <rect x="100" y="395" width="320" height="40" rx="6" fill="#fef3c7" stroke="#f59e0b" stroke-width="2"/>
    <text x="260" y="415" font-size="11" font-weight="bold" text-anchor="middle" fill="#92400e">👍 BEST UX</text>
    <text x="260" y="429" font-size="9" text-anchor="middle" fill="#78350f">Timeline: 2-3 weeks | Best for: SaaS</text>
  </g>
  
  <!-- Option 3: Embedded in Grafana -->
  <g transform="translate(1210, 120)">
    <rect x="0" y="0" width="520" height="450" rx="12" fill="#fef3c7" stroke="#f59e0b" stroke-width="3"/>
    <rect x="0" y="0" width="520" height="50" rx="12" fill="#f59e0b"/>
    <text x="260" y="33" font-size="18" font-weight="bold" text-anchor="middle" fill="#ffffff">
      OPTION 3: EMBEDDED
    </text>
    
    <!-- Mock UI -->
    <g transform="translate(20, 70)">
      <!-- Grafana Dashboard -->
      <rect x="0" y="0" width="480" height="310" rx="6" fill="#ffffff" stroke="#94a3b8" stroke-width="2"/>
      <text x="240" y="20" font-size="11" font-weight="600" text-anchor="middle" fill="#475569">Grafana Dashboard (Full Screen)</text>
      
      <rect x="15" y="35" width="450" height="260" rx="4" fill="#f8fafc" stroke="#cbd5e1" stroke-width="1"/>
      <text x="240" y="55" font-size="9" text-anchor="middle" fill="#64748b">[Dashboard Content]</text>
      
      <!-- Dashboard panels -->
      <rect x="30" y="70" width="200" height="80" rx="3" fill="#dbeafe" stroke="#60a5fa" stroke-width="1"/>
      <text x="130" y="95" font-size="8" text-anchor="middle" fill="#1e40af">Cost Panel</text>
      
      <rect x="245" y="70" width="200" height="80" rx="3" fill="#dcfce7" stroke="#4ade80" stroke-width="1"/>
      <text x="345" y="95" font-size="8" text-anchor="middle" fill="#15803d">Trend Panel</text>
      
      <rect x="30" y="165" width="415" height="115" rx="3" fill="#fef3c7" stroke="#fbbf24" stroke-width="1"/>
      <text x="240" y="190" font-size="8" text-anchor="middle" fill="#92400e">Table Panel</text>
      
      <!-- Floating Chat Widget -->
      <g transform="translate(330, 200)">
        <rect x="0" y="0" width="130" height="90" rx="6" fill="#ffffff" stroke="#0284c7" stroke-width="3" filter="url(#shadow)"/>
        <rect x="0" y="0" width="130" height="25" rx="6" fill="#0284c7"/>
        <text x="15" y="16" font-size="10" font-weight="600" fill="#ffffff">💬 Ask AI</text>
        <circle cx="120" cy="12" r="4" fill="#ffffff"/>
        
        <rect x="10" y="30" width="110" height="50" rx="3" fill="#f0f9ff" stroke="#e0f2fe" stroke-width="1"/>
        <text x="15" y="43" font-size="7" fill="#0c4a6e">You: Explain spike</text>
        <text x="15" y="55" font-size="6" fill="#075985">AI: Processing...</text>
        <text x="15" y="70" font-size="6" fill="#64748b">Type question...</text>
      </g>
    </g>
    
    <!-- Pros/Cons -->
    <g transform="translate(20, 390)">
      <text x="0" y="0" font-size="12" font-weight="600" fill="#92400e">✅ Pros:</text>
      <text x="0" y="18" font-size="10" fill="#78350f">• Seamless integration</text>
      <text x="0" y="33" font-size="10" fill="#78350f">• Native feel</text>
      
      <text x="250" y="0" font-size="12" font-weight="600" fill="#dc2626">❌ Cons:</text>
      <text x="250" y="18" font-size="10" fill="#991b1b">• Complex plugin dev</text>
      <text x="250" y="33" font-size="10" fill="#991b1b">• Limited chat space</text>
    </g>
    
    <!-- Recommendation -->
    <rect x="100" y="455" width="320" height="40" rx="6" fill="#fee2e2" stroke="#dc2626" stroke-width="2"/>
    <text x="260" y="475" font-size="11" font-weight="bold" text-anchor="middle" fill="#991b1b">⚠️ ADVANCED</text>
    <text x="260" y="489" font-size="9" text-anchor="middle" fill="#7f1d1d">Timeline: 4-6 weeks | Best for: DevOps</text>
  </g>
  
  <!-- Comparison Table -->
  <g transform="translate(50, 610)">
    <rect x="0" y="0" width="1680" height="250" rx="12" fill="#f8fafc" stroke="#64748b" stroke-width="2"/>
    <text x="840" y="35" font-size="20" font-weight="bold" text-anchor="middle" fill="#1e293b">
      Comparison Matrix
    </text>
    
    <g transform="translate(40, 60)">
      <!-- Header Row -->
      <rect x="0" y="0" width="200" height="35" fill="#e2e8f0"/>
      <text x="10" y="22" font-size="12" font-weight="600" fill="#1e293b">Feature</text>
      
      <rect x="200" y="0" width="480" height="35" fill="#dcfce7"/>
      <text x="440" y="22" font-size="12" font-weight="600" text-anchor="middle" fill="#15803d">Option 1: Separate Tabs</text>
      
      <rect x="680" y="0" width="480" height="35" fill="#dbeafe"/>
      <text x="920" y="22" font-size="12" font-weight="600" text-anchor="middle" fill="#0c4a6e">Option 2: Split View</text>
      
      <rect x="1160" y="0" width="480" height="35" fill="#fef3c7"/>
      <text x="1400" y="22" font-size="12" font-weight="600" text-anchor="middle" fill="#92400e">Option 3: Embedded</text>
      
      <!-- Rows -->
      <g transform="translate(0, 35)">
        <!-- Screen Space -->
        <rect x="0" y="0" width="200" height="30" fill="#ffffff"/>
        <text x="10" y="20" font-size="11" fill="#475569">Screen Space</text>
        
        <rect x="200" y="0" width="480" height="30" fill="#ffffff"/>
        <text x="440" y="20" font-size="10" text-anchor="middle" fill="#166534">✅ Full for each</text>
        
        <rect x="680" y="0" width="480" height="30" fill="#ffffff"/>
        <text x="920" y="20" font-size="10" text-anchor="middle" fill="#075985">⚠️ 70/30 split</text>
        
        <rect x="1160" y="0" width="480" height="30" fill="#ffffff"/>
        <text x="1400" y="20" font-size="10" text-anchor="middle" fill="#78350f">✅ Dashboard primary</text>
        
        <!-- Implementation -->
        <rect x="0" y="30" width="200" height="30" fill="#f8fafc"/>
        <text x="10" y="50" font-size="11" fill="#475569">Implementation</text>
        
        <rect x="200" y="30" width="480" height="30" fill="#f8fafc"/>
        <text x="440" y="50" font-size="10" text-anchor="middle" fill="#166534">✅ Easy (1 week)</text>
        
        <rect x="680" y="30" width="480" height="30" fill="#f8fafc"/>
        <text x="920" y="50" font-size="10" text-anchor="middle" fill="#075985">⚠️ Medium (2-3 weeks)</text>
        
        <rect x="1160" y="30" width="480" height="30" fill="#f8fafc"/>
        <text x="1400" y="50" font-size="10" text-anchor="middle" fill="#78350f">❌ Hard (4-6 weeks)</text>
        
        <!-- Context Switching -->
        <rect x="0" y="60" width="200" height="30" fill="#ffffff"/>
        <text x="10" y="80" font-size="11" fill="#475569">Context Switching</text>
        
        <rect x="200" y="60" width="480" height="30" fill="#ffffff"/>
        <text x="440" y="80" font-size="10" text-anchor="middle" fill="#991b1b">❌ High</text>
        
        <rect x="680" y="60" width="480" height="30" fill="#ffffff"/>
        <text x="920" y="80" font-size="10" text-anchor="middle" fill="#166534">✅ Low</text>
        
        <rect x="1160" y="60" width="480" height="30" fill="#ffffff"/>
        <text x="1400" y="80" font-size="10" text-anchor="middle" fill="#166534">✅ Minimal</text>
        
        <!-- Mobile Experience -->
        <rect x="0" y="90" width="200" height="30" fill="#f8fafc"/>
        <text x="10" y="110" font-size="11" fill="#475569">Mobile Experience</text>
        
        <rect x="200" y="90" width="480" height="30" fill="#f8fafc"/>
        <text x="440" y="110" font-size="10" text-anchor="middle" fill="#166534">✅ Good</text>
        
        <rect x="680" y="90" width="480" height="30" fill="#f8fafc"/>
        <text x="920" y="110" font-size="10" text-anchor="middle" fill="#991b1b">❌ Poor</text>
        
        <rect x="1160" y="90" width="480" height="30" fill="#f8fafc"/>
        <text x="1400" y="110" font-size="10" text-anchor="middle" fill="#075985">⚠️ Medium</text>
        
        <!-- Best For -->
        <rect x="0" y="120" width="200" height="30" fill="#ffffff"/>
        <text x="10" y="140" font-size="11" fill="#475569">Best For</text>
        
        <rect x="200" y="120" width="480" height="30" fill="#ffffff"/>
        <text x="440" y="140" font-size="10" text-anchor="middle" fill="#166534">MVP, Enterprise</text>
        
        <rect x="680" y="120" width="480" height="30" fill="#ffffff"/>
        <text x="920" y="140" font-size="10" text-anchor="middle" fill="#075985">SaaS Product</text>
        
        <rect x="1160" y="120" width="480" height="30" fill="#ffffff"/>
        <text x="1400" y="140" font-size="10" text-anchor="middle" fill="#78350f">DevOps Teams</text>
      </g>
    </g>
  </g>
  
  <!-- Recommendation Path -->
  <g transform="translate(50, 900)">
    <rect x="0" y="0" width="1680" height="240" rx="12" fill="#fef3c7" stroke="#f59e0b" stroke-width="3"/>
    <text x="840" y="35" font-size="22" font-weight="bold" text-anchor="middle" fill="#92400e">
      📍 Recommended Evolution Path
    </text>
    
    <g transform="translate(100, 70)">
      <!-- Phase 1 -->
      <g transform="translate(0, 0)">
        <rect x="0" y="0" width="450" height="130" rx="8" fill="#dcfce7" stroke="#16a34a" stroke-width="2"/>
        <text x="225" y="25" font-size="14" font-weight="bold" text-anchor="middle" fill="#15803d">Phase 1: Separate Tabs</text>
        <text x="225" y="50" font-size="12" text-anchor="middle" fill="#166534">Months 1-3</text>
        
        <text x="20" y="75" font-size="11" fill="#166534">✅ Launch quickly (1 week)</text>
        <text x="20" y="93" font-size="11" fill="#166534">✅ Test both features independently</text>
        <text x="20" y="111" font-size="11" fill="#166534">✅ Get user feedback on usage patterns</text>
      </g>
      
      <!-- Arrow -->
      <g transform="translate(480, 60)">
        <line x1="0" y1="0" x2="70" y2="0" stroke="#f59e0b" stroke-width="4" marker-end="url(#arrowhead-orange)"/>
        <text x="35" y="-10" font-size="10" font-weight="600" text-anchor="middle" fill="#92400e">If users want</text>
        <text x="35" y="5" font-size="10" font-weight="600" text-anchor="middle" fill="#92400e">both at once</text>
      </g>
      
      <!-- Phase 2 -->
      <g transform="translate(570, 0)">
        <rect x="0" y="0" width="450" height="130" rx="8" fill="#dbeafe" stroke="#0284c7" stroke-width="2"/>
        <text x="225" y="25" font-size="14" font-weight="bold" text-anchor="middle" fill="#0c4a6e">Phase 2: Add Split View</text>
        <text x="225" y="50" font-size="12" text-anchor="middle" fill="#075985">Months 4-6</text>
        
        <text x="20" y="75" font-size="11" fill="#075985">✅ Add toggle for split view (2-3 weeks)</text>
        <text x="20" y="93" font-size="11" fill="#075985">✅ Better UX for power users</text>
        <text x="20" y="111" font-size="11" fill="#075985">⚠️ Keep tabs option for mobile</text>
      </g>
      
      <!-- Arrow -->
      <g transform="translate(1050, 60)">
        <line x1="0" y1="0" x2="70" y2="0" stroke="#f59e0b" stroke-width="4" marker-end="url(#arrowhead-orange)"/>
        <text x="35" y="-10" font-size="10" font-weight="600" text-anchor="middle" fill="#92400e">Optional:</text>
        <text x="35" y="5" font-size="10" font-weight="600" text-anchor="middle" fill="#92400e">If high demand</text>
      </g>
      
      <!-- Phase 3 -->
      <g transform="translate(1140, 0)">
        <rect x="0" y="0" width="340" height="130" rx="8" fill="#fef3c7" stroke="#f59e0b" stroke-width="2"/>
        <text x="170" y="25" font-size="14" font-weight="bold" text-anchor="middle" fill="#92400e">Phase 3: Plugin</text>
        <text x="170" y="50" font-size="12" text-anchor="middle" fill="#78350f">Month 7+ (Optional)</text>
        
        <text x="20" y="75" font-size="11" fill="#78350f">⚠️ Only if 100+ customers</text>
        <text x="20" y="93" font-size="11" fill="#78350f">⚠️ Strong demand</text>
        <text x="20" y="111" font-size="11" fill="#78350f">⚠️ Have Grafana expertise</text>
      </g>
    </g>
  </g>
  
  <!-- Shadows and markers -->
  <defs>
    <filter id="shadow" x="-50%" y="-50%" width="200%" height="200%">
      <feDropShadow dx="2" dy="2" stdDeviation="3" flood-opacity="0.3"/>
    </filter>
    <marker id="arrowhead-orange" markerWidth="10" markerHeight="10" refX="9" refY="3" orient="auto">
      <polygon points="0 0, 10 3, 0 6" fill="#f59e0b"/>
    </marker>
  </defs>
</svg>
